<?xml version="1.0" standalone="no"?>
<!DOCTYPE svg PUBLIC "-//W3C//DTD SVG 20010904//EN"
 "http://www.w3.org/TR/2001/REC-SVG-20010904/DTD/svg10.dtd">
<svg version="1.0" xmlns="http://www.w3.org/2000/svg"
 width="512.000000pt" height="512.000000pt" viewBox="0 0 512.000000 512.000000"
 preserveAspectRatio="xMidYMid meet">
<metadata>
Created by potrace 1.11, written by Peter Selinger 2001-2013
</metadata>
<g transform="translate(0.000000,512.000000) scale(0.100000,-0.100000)"
fill="#000000" stroke="none">
<path d="M0 5109 c0 -5 5 -7 10 -4 5 3 10 8 10 11 0 2 -4 4 -10 4 -5 0 -10 -5
-10 -11z"/>
<path d="M2610 4459 c0 -5 -11 -7 -25 -5 -13 3 -27 0 -31 -5 -3 -5 -10 -6 -17
-2 -20 12 -58 9 -66 -5 -6 -11 -9 -10 -15 4 -7 18 -8 18 -22 0 -8 -11 -14 -14
-14 -8 0 9 -5 10 -19 2 -14 -7 -21 -6 -24 3 -4 9 -6 8 -6 -2 -1 -11 -4 -11
-16 -1 -11 9 -18 10 -28 1 -8 -6 -17 -8 -20 -4 -4 3 -7 1 -7 -6 0 -9 -5 -9
-21 0 -13 7 -19 7 -15 1 3 -6 2 -13 -4 -17 -5 -3 -10 0 -10 7 0 9 -3 9 -10 -2
-8 -12 -10 -12 -10 -1 0 11 -3 11 -15 1 -8 -7 -15 -9 -15 -4 0 5 -12 10 -26
10 -18 2 -24 -2 -20 -12 7 -18 1 -18 -19 2 -12 13 -19 14 -30 4 -12 -10 -15
-10 -15 0 0 9 -4 9 -13 2 -8 -7 -18 -7 -27 -2 -9 6 -20 4 -29 -3 -12 -9 -13
-9 -8 0 5 8 1 11 -14 8 -12 -2 -24 -7 -27 -9 -2 -3 -13 -1 -23 4 -12 7 -20 7
-24 0 -3 -5 -17 -10 -31 -10 -18 0 -23 -4 -18 -12 5 -9 2 -9 -9 1 -9 7 -17 9
-17 4 0 -13 -53 -11 -62 2 -5 6 -8 5 -8 -2 0 -7 -7 -13 -16 -13 -9 0 -12 5 -8
13 6 9 5 9 -8 0 -8 -7 -18 -10 -21 -6 -4 3 -7 1 -7 -7 0 -10 -3 -10 -15 0 -10
8 -15 9 -15 2 0 -7 -7 -9 -17 -5 -12 5 -14 3 -8 -8 7 -11 5 -11 -10 1 -17 14
-18 13 -12 -5 7 -20 7 -20 -8 -1 -8 11 -15 15 -15 9 0 -6 -12 -10 -26 -8 -19
2 -24 -1 -19 -13 5 -12 1 -12 -15 3 -12 11 -20 13 -20 6 0 -7 -4 -9 -10 -6 -5
3 -20 0 -32 -7 -13 -7 -27 -11 -33 -9 -5 2 -20 4 -33 6 -19 2 -20 0 -10 -13
11 -13 10 -14 -7 -5 -24 12 -48 6 -38 -10 4 -7 -1 -6 -10 2 -11 8 -17 9 -17 3
0 -6 -7 -9 -15 -6 -9 4 -15 1 -15 -7 0 -10 -3 -10 -12 -1 -9 9 -17 6 -34 -13
-12 -13 -23 -22 -25 -20 -2 1 -10 -3 -17 -11 -7 -8 -10 -14 -6 -14 3 0 1 -7
-6 -15 -10 -12 -10 -15 1 -15 9 0 10 -3 4 -8 -14 -10 -17 -32 -5 -32 7 0 7 -6
0 -19 -7 -14 -6 -21 3 -24 9 -4 9 -6 -1 -6 -7 -1 -10 -6 -7 -11 5 -9 16 -133
18 -217 1 -13 3 -23 7 -23 3 0 6 -37 7 -83 3 -125 7 -177 14 -177 3 0 3 -18
-1 -40 -5 -26 -3 -41 4 -44 8 -3 7 -5 -1 -5 -8 -1 -9 -10 -3 -31 6 -21 5 -28
-2 -24 -7 4 -7 -2 -2 -17 4 -13 8 -37 8 -54 1 -16 5 -36 9 -43 5 -7 5 -11 0
-10 -4 1 -18 -3 -31 -10 -19 -11 -27 -10 -51 7 -15 11 -31 18 -35 14 -3 -3 -6
-2 -6 3 0 6 -19 11 -42 13 -23 1 -45 4 -50 7 -4 3 -8 2 -8 -3 0 -4 -13 -8 -30
-8 -16 0 -30 5 -30 10 0 7 -3 7 -8 0 -4 -5 -27 -11 -52 -12 -64 -2 -84 -6 -93
-20 -4 -7 -14 -13 -21 -13 -8 0 -19 -7 -26 -15 -7 -8 -16 -12 -21 -9 -5 3 -9
1 -9 -3 0 -11 -60 -34 -71 -27 -5 3 -9 0 -9 -6 0 -6 -4 -9 -9 -5 -5 3 -12 -3
-16 -14 -3 -11 -13 -22 -21 -25 -8 -3 -12 -10 -9 -16 4 -6 -1 -7 -12 -3 -10 3
-15 3 -11 -1 3 -4 -2 -16 -13 -27 -11 -11 -17 -24 -14 -30 4 -5 1 -8 -5 -7
-13 3 -52 -91 -45 -109 2 -7 1 -13 -4 -13 -4 0 -8 -6 -9 -12 -1 -7 -4 -31 -7
-53 -3 -22 -7 -61 -8 -87 -1 -27 -4 -48 -7 -48 -12 0 6 -255 20 -280 5 -9 6
-20 3 -24 -3 -3 0 -6 7 -6 7 0 11 -3 8 -6 -4 -3 -2 -20 4 -37 5 -18 10 -36 11
-42 2 -5 6 -16 10 -22 5 -7 5 -13 1 -13 -4 0 1 -9 11 -20 14 -15 15 -20 4 -20
-10 -1 -9 -4 4 -11 9 -6 15 -15 11 -20 -3 -6 2 -19 11 -29 9 -10 14 -24 10
-29 -3 -6 -1 -11 5 -11 6 0 8 -4 5 -10 -3 -5 -1 -10 4 -10 6 0 11 -9 11 -19 0
-11 5 -21 10 -23 6 -2 12 -13 15 -26 2 -12 10 -29 17 -37 31 -34 38 -45 31
-45 -4 -1 2 -9 14 -19 12 -10 20 -20 18 -23 -2 -2 16 -25 39 -51 24 -26 41
-47 38 -47 -3 0 6 -9 19 -21 13 -11 36 -31 51 -45 16 -13 31 -24 35 -25 5 0
12 -7 16 -15 4 -8 14 -14 21 -14 8 0 19 -7 26 -15 7 -8 16 -13 20 -10 4 3 10
-2 14 -10 3 -8 12 -15 21 -15 8 0 23 -4 33 -9 33 -18 92 -42 98 -41 4 1 11 -4
15 -12 7 -11 9 -11 9 1 0 10 3 11 13 2 8 -6 17 -8 20 -4 4 3 7 2 7 -3 0 -6 10
-10 23 -11 23 -1 117 -11 133 -14 5 -1 11 0 14 1 16 6 70 5 70 -2 0 -4 6 -8
14 -8 8 0 17 -12 20 -27 4 -16 8 -37 11 -48 2 -11 8 -33 12 -50 5 -16 9 -37 8
-45 -1 -8 3 -21 8 -28 6 -8 5 -12 -4 -12 -12 0 -12 -2 0 -9 7 -5 15 -24 18
-42 5 -45 9 -61 17 -81 4 -9 5 -21 2 -27 -3 -5 -2 -11 4 -13 5 -1 10 -18 12
-35 1 -18 5 -33 8 -33 3 0 6 -10 7 -22 1 -13 7 -43 12 -68 15 -70 25 -124 23
-132 -1 -5 2 -8 8 -8 5 0 7 -6 4 -13 -3 -8 4 -34 15 -60 l20 -46 -25 -25 c-29
-29 -26 -59 10 -88 12 -10 27 -22 34 -28 7 -6 22 -13 34 -15 12 -3 24 -9 28
-15 3 -5 16 -11 28 -13 12 -2 25 -6 28 -10 4 -4 15 -7 25 -7 9 0 19 -5 21 -11
2 -5 10 -11 18 -13 8 -1 26 -8 40 -16 14 -8 28 -13 33 -12 4 1 7 -2 7 -7 0 -5
8 -8 18 -6 9 1 22 0 27 -4 6 -3 15 -6 20 -7 6 0 16 -2 23 -2 8 -1 10 -7 6 -14
-6 -10 -4 -10 8 0 9 7 19 9 21 5 3 -5 19 -10 36 -11 17 -1 43 -7 57 -13 21 -7
29 -7 36 3 6 10 8 10 8 -1 0 -9 8 -12 25 -9 15 3 22 1 18 -5 -4 -6 0 -8 9 -4
9 3 21 0 28 -6 10 -9 11 -9 5 3 -8 13 -7 13 8 1 14 -11 17 -11 17 0 0 11 2 11
10 -1 5 -8 10 -12 10 -8 0 4 11 3 25 -2 17 -7 25 -6 25 1 0 8 4 8 13 0 8 -6
17 -8 20 -4 4 3 7 1 7 -7 0 -10 3 -10 15 0 8 7 15 8 15 3 0 -9 36 -15 103 -17
20 0 37 -3 37 -7 0 -9 43 -5 59 5 9 6 12 5 8 -1 -4 -6 14 -10 48 -9 30 1 55 4
55 8 0 8 21 5 38 -5 6 -5 12 -4 12 2 0 6 14 9 30 7 17 -2 33 0 35 4 3 5 14 6
25 3 11 -3 20 -1 20 4 0 5 16 8 35 7 26 -2 34 0 28 9 -4 7 0 7 10 -2 9 -7 17
-9 17 -4 0 5 12 8 28 7 15 -1 33 4 41 10 12 9 13 8 7 -2 -7 -11 -4 -12 11 -3
14 7 23 7 31 -1 8 -8 12 -8 12 -2 0 6 6 11 13 11 6 0 39 4 72 8 33 4 73 8 88
9 16 1 32 6 35 12 8 11 28 17 65 18 15 1 27 5 27 10 0 4 9 6 20 3 11 -3 20 -1
20 5 0 5 5 6 10 3 6 -3 10 -2 10 4 0 6 7 8 15 5 8 -4 15 -1 15 5 0 6 7 8 15 5
8 -3 20 -2 27 2 7 5 19 10 26 11 6 2 18 4 25 6 6 1 18 7 26 11 9 6 12 5 8 -2
-14 -21 79 31 107 61 21 23 30 44 32 77 6 69 8 80 15 80 3 0 5 13 4 30 -1 16
2 35 6 42 4 7 3 18 -3 25 -6 7 -6 13 -1 13 5 0 9 32 9 71 -1 39 2 73 6 75 3 2
5 12 4 22 -2 9 2 20 8 24 8 6 7 8 -1 8 -7 0 -10 6 -8 13 3 6 7 35 9 62 3 28 5
50 6 50 1 0 3 12 4 26 2 14 6 31 10 37 4 7 2 12 -4 12 -6 0 -8 5 -4 12 5 7 9
33 10 58 4 90 15 183 28 237 2 13 0 25 -5 28 -5 4 -7 11 -4 16 11 17 16 54 21
159 2 58 7 119 9 135 3 17 7 77 10 134 3 57 7 107 10 109 3 3 11 0 17 -6 7 -7
10 -37 8 -79 -5 -104 1 -218 15 -323 2 -19 5 -54 6 -77 3 -49 20 -56 50 -20
13 16 18 18 19 7 0 -13 1 -13 10 0 7 12 10 12 10 1 0 -7 6 -11 15 -7 8 3 15 1
15 -4 0 -6 9 -6 24 0 13 5 27 6 30 3 3 -4 6 -2 6 4 0 5 20 9 45 8 25 0 45 3
45 8 0 4 5 5 10 2 6 -4 17 -1 25 5 11 9 15 9 15 1 0 -11 1 -11 61 20 12 6 18
6 15 1 -6 -10 59 9 70 21 4 3 16 2 27 -4 14 -8 18 -8 13 0 -4 6 -2 12 3 12 20
3 26 5 50 18 13 7 20 16 15 20 -5 3 -10 15 -10 26 -1 11 -5 38 -8 60 -3 22 -9
63 -11 90 -6 50 -12 90 -15 90 -3 0 -10 73 -14 140 -2 33 -5 60 -6 60 -1 0 -3
21 -5 47 -2 33 1 46 9 41 7 -4 6 -1 -1 8 -7 9 -14 40 -16 70 -2 30 -7 61 -12
69 -5 8 -4 11 3 6 7 -4 10 1 9 14 -1 11 -4 20 -8 20 -4 0 -10 7 -13 16 -4 10
-2 13 6 8 8 -5 9 1 3 22 -4 16 -8 40 -8 54 -1 14 -6 28 -12 32 -6 5 -5 8 4 8
11 0 11 3 0 17 -10 11 -10 14 -1 9 7 -4 12 -2 12 4 0 13 -80 7 -123 -9 -14 -5
-33 -8 -43 -6 -11 2 -22 4 -26 4 -4 1 -7 11 -7 24 1 27 -4 48 -14 65 -5 6 -6
12 -2 12 3 0 1 9 -5 21 -10 18 -15 60 -21 201 -2 23 -6 35 -13 31 -6 -3 -6 0
1 7 9 9 9 19 2 33 -9 15 -8 18 2 12 8 -6 10 -4 4 4 -7 13 -10 41 -19 241 -9
168 -16 273 -21 305 -7 38 -13 99 -19 195 -3 41 -9 95 -12 120 -7 43 -8 98 -4
150 5 51 0 69 -20 75 -11 3 -20 11 -20 16 0 5 -11 22 -24 36 -14 15 -23 30
-20 35 6 9 2 10 -38 13 -24 2 -26 0 -15 -13 6 -9 7 -13 1 -9 -16 9 -84 -14
-77 -27 4 -6 -1 -5 -10 3 -12 9 -17 10 -17 2 0 -8 -5 -9 -18 -2 -11 6 -24 6
-32 1 -9 -5 -19 -5 -27 2 -7 6 -13 7 -13 2 0 -5 -5 -2 -10 6 -8 13 -10 12 -10
-3 0 -16 -2 -16 -22 2 -16 16 -25 18 -35 10 -9 -8 -13 -8 -13 0 0 6 -5 11 -11
11 -5 0 -7 -6 -3 -12 4 -7 -3 -4 -16 7 -13 11 -20 14 -16 8 11 -19 -5 -16 -21
5 -8 9 -12 11 -8 5 4 -9 -2 -13 -17 -13 -13 0 -30 6 -37 13 -12 10 -13 9 -7
-7 5 -14 3 -16 -6 -9 -7 6 -21 9 -30 8 -11 -2 -15 2 -11 12 5 13 2 13 -14 5
-11 -6 -23 -8 -27 -5 -4 4 -23 6 -42 5 -25 -2 -34 1 -28 9 5 8 3 9 -7 3 -21
-13 -39 -14 -39 -1 0 7 -5 5 -10 -3 -5 -8 -10 -10 -10 -4 0 11 -60 17 -157 16
-26 0 -43 5 -43 11 0 7 -5 5 -10 -3 -8 -12 -10 -12 -10 -1 0 11 -3 11 -17 0
-11 -10 -14 -10 -9 -1 5 8 0 12 -14 12 -14 0 -19 4 -14 13 6 9 4 9 -8 -1 -9
-7 -29 -10 -48 -7 -23 4 -29 2 -24 -6 5 -8 3 -9 -7 -3 -23 14 -51 16 -43 2 5
-7 3 -8 -7 -2 -8 5 -22 7 -33 5 -13 -2 -16 1 -10 11 6 10 5 11 -7 1 -15 -12
-48 -11 -68 2 -5 3 -13 0 -17 -6 -5 -8 -9 -7 -14 2 -7 10 -11 10 -24 0 -12
-11 -16 -11 -16 -1 0 10 -3 10 -15 0 -10 -8 -15 -9 -15 -2 0 6 -7 9 -15 6 -8
-4 -13 -10 -10 -14 3 -5 -4 -6 -15 -3 -11 3 -17 10 -14 15 4 6 -3 5 -15 -1
-16 -9 -21 -9 -21 1 0 6 -7 3 -16 -8 -8 -10 -13 -14 -10 -8 3 7 -3 14 -14 17
-11 3 -20 1 -20 -4z m-1085 -109 c3 -5 1 -10 -4 -10 -6 0 -11 5 -11 10 0 6 2
10 4 10 3 0 8 -4 11 -10z m2609 -405 c3 -66 9 -136 12 -155 4 -19 8 -63 8 -97
1 -35 4 -63 7 -63 3 0 5 -22 5 -50 -1 -27 3 -50 8 -50 4 0 3 -6 -3 -13 -6 -8
-8 -17 -4 -20 3 -4 8 -28 9 -55 9 -155 15 -199 28 -221 7 -11 6 -12 -5 -6 -12
7 -12 6 -1 -7 10 -13 10 -17 0 -22 -11 -5 -11 -7 0 -12 10 -5 10 -9 1 -20 -9
-11 -8 -14 2 -14 12 0 12 -2 1 -9 -8 -4 -14 -12 -14 -16 0 -4 6 -12 14 -16 7
-5 8 -9 2 -9 -6 0 -11 -7 -11 -15 0 -8 4 -12 9 -9 4 3 8 1 8 -5 0 -5 -5 -13
-11 -16 -7 -5 -4 -14 7 -26 16 -18 16 -19 1 -13 -10 3 -17 1 -17 -5 0 -6 4
-11 9 -11 5 0 9 -12 9 -26 0 -15 3 -29 8 -33 8 -6 11 -13 19 -51 2 -8 4 -15 5
-15 1 0 3 -10 4 -22 2 -13 -1 -23 -6 -23 -5 0 -7 -4 -4 -9 7 -11 -22 -17 -104
-20 -35 -1 -72 -7 -81 -11 -21 -12 -48 17 -43 45 2 11 5 48 6 82 1 41 5 60 12
56 6 -4 5 0 -1 9 -7 8 -11 17 -8 19 4 4 15 154 17 227 1 17 4 32 8 32 3 0 6
19 6 43 1 23 4 65 8 92 4 28 9 80 11 118 2 37 7 72 10 77 3 5 8 45 10 90 3 45
7 85 9 89 2 3 7 60 11 126 7 107 12 172 14 184 1 2 3 2 5 0 3 -3 7 -58 10
-124z m-2984 -879 c22 1 40 -2 40 -6 0 -4 13 -6 30 -4 16 2 35 -3 43 -11 8 -8
18 -11 22 -7 5 4 6 3 3 -3 -8 -15 10 -57 21 -50 6 3 8 -3 6 -15 -2 -11 0 -22
6 -25 5 -4 5 -14 -2 -27 -8 -16 -8 -19 1 -13 9 6 11 -3 8 -34 -2 -22 0 -41 5
-41 5 0 7 -7 3 -15 -3 -8 -2 -15 2 -15 4 0 8 -12 9 -27 4 -76 9 -103 17 -103
5 0 7 -3 4 -6 -4 -3 -2 -20 4 -37 5 -18 10 -40 10 -49 -1 -10 3 -20 8 -23 5
-3 7 -12 3 -21 -3 -8 1 -22 10 -32 9 -11 12 -24 7 -37 -4 -11 -3 -35 2 -55 5
-19 11 -48 14 -65 3 -16 11 -36 16 -42 8 -9 7 -13 -3 -13 -9 0 -10 -3 -4 -8 6
-4 11 -29 12 -56 1 -26 7 -53 12 -60 5 -6 7 -23 5 -39 -1 -15 1 -25 7 -22 5 3
6 -1 3 -9 -3 -9 -11 -16 -18 -16 -7 0 -6 -4 2 -9 12 -7 12 -12 1 -30 -8 -11
-17 -21 -22 -21 -4 0 -6 -4 -3 -8 2 -4 -10 -6 -29 -4 -18 2 -36 -1 -40 -8 -5
-8 -10 -8 -21 1 -11 9 -14 8 -14 -2 0 -8 -6 -6 -16 7 -8 10 -12 12 -8 4 7 -13
6 -13 -11 0 -10 8 -20 14 -22 12 -8 -6 -52 11 -48 19 3 4 -4 6 -15 4 -11 -2
-20 0 -20 6 0 5 -18 16 -40 25 -22 9 -40 20 -40 25 0 5 -5 9 -11 9 -13 0 -49
38 -49 52 0 5 -4 6 -10 3 -5 -3 -10 1 -10 9 0 8 -5 18 -12 22 -7 5 -8 3 -3 -7
8 -12 6 -12 -8 0 -9 7 -14 17 -11 22 3 5 -2 12 -10 15 -9 3 -13 10 -10 15 3 5
-2 9 -10 9 -14 0 -20 12 -17 33 0 4 -6 7 -15 7 -8 0 -13 4 -10 8 3 5 -4 14
-14 22 -10 8 -17 17 -14 21 3 5 -4 14 -15 20 -10 7 -17 18 -15 24 3 6 -5 20
-16 32 -11 12 -20 29 -20 38 0 8 -5 15 -11 15 -5 0 -8 4 -4 9 3 5 1 12 -4 16
-6 3 -7 13 -4 22 5 11 3 14 -6 8 -10 -6 -11 -3 -2 13 8 15 8 23 0 28 -8 4 -7
9 2 15 8 5 9 9 3 9 -6 0 -10 12 -10 28 1 15 -3 33 -8 40 -4 6 -5 12 0 12 5 0
8 23 7 52 -1 29 4 59 10 67 10 12 9 13 -3 6 -13 -8 -13 -7 -1 8 11 14 11 17 0
18 -10 0 -11 2 -1 6 6 2 12 15 12 28 0 13 7 31 16 39 8 9 12 16 8 16 -4 0 5
14 22 32 16 18 20 26 9 18 -20 -15 -20 -14 -1 8 11 12 21 20 24 18 2 -3 15 7
28 21 13 14 24 23 24 19 0 -3 15 1 33 11 17 9 43 16 56 14 13 -1 21 1 18 6 -7
11 23 10 41 -1 7 -4 12 -4 11 1 -3 15 2 28 7 17 2 -5 22 -9 44 -8z"/>
</g>
</svg>
