<?xml version="1.0" standalone="no"?>
<!DOCTYPE svg PUBLIC "-//W3C//DTD SVG 20010904//EN"
 "http://www.w3.org/TR/2001/REC-SVG-20010904/DTD/svg10.dtd">
<svg version="1.0" xmlns="http://www.w3.org/2000/svg"
 width="563.000000pt" height="563.000000pt" viewBox="0 0 563.000000 563.000000"
 preserveAspectRatio="xMidYMid meet">
<metadata>
Created by potrace 1.11, written by Peter Selinger 2001-2013
</metadata>
<g transform="translate(0.000000,563.000000) scale(0.100000,-0.100000)"
fill="#000000" stroke="none">
<path d="M2235 4829 c-27 -5 -81 -11 -119 -14 -39 -3 -99 -10 -135 -16 -37 -5
-88 -12 -116 -15 -105 -10 -142 -15 -190 -29 -62 -18 -200 -52 -240 -59 -44
-8 -77 -19 -217 -70 -224 -81 -415 -203 -525 -334 -38 -45 -70 -88 -71 -95 0
-6 -3 -64 -6 -127 -3 -63 -8 -178 -12 -255 -9 -169 -8 -311 3 -328 12 -20 12
-37 0 -37 -7 0 -7 -4 2 -9 8 -5 11 -16 8 -25 -4 -9 -3 -16 1 -16 4 0 9 -10 10
-22 1 -13 4 -32 6 -43 3 -11 8 -41 11 -67 5 -31 11 -45 19 -41 6 3 5 0 -2 -8
-6 -7 -12 -19 -12 -27 0 -20 -94 -108 -150 -140 -25 -15 -53 -33 -62 -42 -9
-8 -50 -40 -91 -70 -42 -30 -83 -68 -93 -85 -10 -16 -29 -41 -43 -55 -14 -14
-35 -44 -45 -68 -10 -23 -24 -42 -30 -42 -6 0 -21 -38 -33 -84 -13 -46 -28
-97 -35 -112 -14 -34 -18 -84 -6 -84 4 0 8 -6 8 -14 0 -7 8 -20 17 -27 15 -12
16 -12 11 3 -4 10 -2 15 7 14 23 -3 27 -13 15 -35 -9 -17 -8 -22 5 -27 8 -3
15 -11 15 -16 0 -6 -7 -5 -15 2 -9 7 -18 10 -22 6 -4 -3 2 -13 13 -22 18 -14
18 -15 -4 -4 -18 9 -21 16 -16 33 6 21 6 21 -21 -3 -16 -14 -25 -20 -21 -13 3
6 3 14 -2 17 -4 2 -8 -6 -8 -19 0 -20 3 -22 18 -14 14 7 20 6 24 -6 3 -8 10
-12 15 -9 5 3 6 -2 2 -12 -5 -14 -8 -13 -18 6 -8 15 -15 19 -19 11 -4 -6 -4
-17 0 -23 5 -8 0 -7 -11 2 -17 14 -18 14 -6 -8 6 -12 9 -27 5 -34 -4 -6 -1 -9
7 -6 8 3 13 11 12 17 -2 6 2 11 7 11 13 0 13 -17 -1 -25 -6 -4 -8 -13 -5 -21
3 -8 1 -14 -3 -14 -5 0 -11 6 -14 13 -2 6 -3 -4 -2 -23 1 -19 6 -43 10 -52 4
-9 3 -23 -1 -30 -5 -9 -2 -8 12 2 10 8 16 10 12 6 -4 -5 -3 -15 4 -23 8 -11 7
-12 -6 -7 -11 4 -16 1 -16 -11 0 -12 5 -15 16 -11 14 5 15 4 4 -9 -8 -9 -8
-15 -2 -15 6 0 14 5 17 10 3 6 11 10 17 10 5 0 0 -9 -13 -21 l-24 -20 25 7
c24 6 24 6 5 -10 -16 -12 -17 -16 -5 -17 8 -1 19 -1 23 0 5 1 5 -4 1 -11 -14
-22 -13 -37 2 -31 12 4 12 0 4 -21 -8 -22 -6 -28 10 -38 11 -7 20 -18 20 -25
0 -7 5 -13 10 -13 6 0 10 5 10 12 0 6 3 8 6 5 4 -4 2 -12 -4 -20 -8 -10 -6
-16 9 -25 11 -7 17 -17 14 -22 -3 -6 -1 -10 4 -10 6 0 11 -7 11 -16 0 -9 5
-12 12 -8 8 5 9 1 5 -12 -7 -18 -6 -18 9 1 16 20 16 20 9 -2 -4 -14 -2 -23 4
-23 6 0 7 -8 4 -17 -6 -16 -5 -16 10 -4 15 12 17 12 11 -4 -5 -13 -4 -16 4
-11 11 6 17 -12 13 -36 0 -5 5 -8 13 -8 9 0 13 8 10 23 -4 20 -4 20 5 2 5 -13
5 -25 -3 -34 -9 -12 -7 -12 14 -1 20 10 23 10 13 0 -9 -10 -7 -17 12 -32 14
-11 30 -16 37 -12 9 6 9 3 -1 -9 -11 -15 -11 -17 2 -17 8 0 18 -7 21 -16 4
-10 12 -14 22 -10 13 5 14 4 6 -7 -15 -17 4 -38 26 -30 9 4 13 2 9 -4 -4 -6 0
-14 9 -17 9 -4 14 -9 11 -13 -8 -7 36 -43 53 -43 6 0 8 -5 4 -12 -5 -9 -2 -8
9 1 15 12 17 12 11 -4 -5 -13 -4 -16 4 -11 7 4 12 2 12 -3 0 -6 7 -11 16 -11
9 0 12 -5 8 -12 -5 -9 -2 -8 9 1 10 8 20 11 24 7 3 -3 1 -6 -5 -6 -7 0 -12 -5
-12 -11 0 -5 5 -7 10 -4 6 3 10 -1 10 -10 0 -9 4 -14 8 -11 5 3 15 -4 22 -14
11 -16 17 -17 29 -7 12 9 13 9 7 0 -4 -8 -2 -13 4 -13 6 0 9 -4 6 -9 -3 -5 1
-11 9 -14 8 -4 13 -1 11 6 -1 7 -1 9 1 4 3 -4 9 -5 14 -2 5 4 6 -1 3 -9 -3 -9
-1 -16 6 -16 6 0 8 -5 4 -12 -5 -8 -2 -9 9 -5 11 4 26 -3 41 -18 27 -27 42
-33 30 -12 -5 8 -3 8 9 -2 9 -7 14 -18 10 -25 -4 -6 2 -4 12 4 10 8 16 11 13
5 -3 -5 0 -16 8 -23 10 -9 14 -9 14 -1 0 6 9 0 20 -14 14 -17 26 -24 37 -20
11 5 14 3 8 -6 -6 -11 -3 -11 16 0 23 12 23 11 9 -6 -9 -11 -10 -16 -2 -11 7
4 12 2 13 -6 0 -7 4 -4 8 7 7 17 8 16 15 -9 5 -21 10 -25 19 -17 9 7 16 5 24
-9 8 -12 21 -17 38 -16 21 3 23 1 13 -12 -11 -13 -10 -14 9 -4 16 9 24 9 29 0
5 -7 3 -8 -7 -3 -12 8 -12 6 0 -8 8 -10 16 -15 19 -12 3 3 12 -1 20 -8 10 -8
13 -8 9 -1 -4 7 0 15 9 18 10 4 18 -1 21 -13 3 -11 12 -22 20 -25 8 -3 11 -1
8 4 -3 6 -2 10 3 10 6 0 12 -7 16 -15 3 -8 9 -15 13 -14 4 1 11 0 16 -1 19 -6
33 -5 39 5 5 6 8 2 8 -9 0 -13 5 -17 19 -13 13 3 18 0 15 -7 -3 -7 1 -13 8
-14 17 -1 39 -7 61 -17 10 -4 23 -2 31 4 11 9 16 9 22 0 5 -8 3 -9 -6 -4 -8 5
-11 4 -6 -3 4 -6 14 -8 23 -5 12 5 14 3 8 -8 -8 -12 -6 -12 8 0 15 11 17 11
17 -1 0 -15 7 -17 65 -21 19 -1 35 -5 35 -9 0 -4 7 -4 17 -1 10 4 14 2 9 -5
-4 -7 4 -9 24 -7 18 2 36 -2 45 -11 13 -14 15 -14 16 3 0 10 3 13 6 5 2 -6 10
-9 16 -5 9 5 9 3 0 -8 -10 -12 -6 -14 28 -11 25 3 39 0 39 -8 0 -6 5 -8 10 -5
6 4 7 11 4 17 -4 6 -2 8 4 4 5 -3 13 -1 15 4 3 6 4 5 3 -2 -2 -7 4 -18 13 -25
23 -18 36 -16 20 3 -9 12 -3 10 24 -5 43 -24 47 -25 47 -10 0 5 -4 7 -10 4 -6
-4 -7 1 -3 11 5 15 7 15 15 0 5 -9 13 -14 19 -11 5 4 9 2 9 -3 0 -5 10 -8 23
-7 12 1 31 -5 41 -14 11 -9 16 -10 12 -3 -9 16 6 16 23 -1 11 -10 13 -9 8 6
-5 14 -3 16 12 8 10 -6 22 -7 26 -3 5 4 5 1 1 -6 -4 -7 -12 -9 -18 -6 -7 4 -8
2 -4 -4 8 -13 36 -5 36 10 0 6 9 0 21 -13 11 -13 18 -19 15 -13 -3 7 0 14 7
16 16 7 38 -2 32 -11 -2 -5 10 -7 28 -7 23 2 32 6 31 19 -1 9 2 17 7 17 8 0
13 -23 10 -43 -1 -5 4 -5 10 -1 15 9 93 9 108 0 6 -4 11 -4 10 1 -4 22 3 25
17 7 11 -13 14 -14 11 -3 -3 9 1 16 9 16 7 0 11 -4 8 -9 -3 -4 -2 -8 3 -9 4 0
16 -2 26 -4 12 -2 17 1 13 10 -3 9 0 12 9 8 8 -3 13 -8 11 -12 -2 -3 11 -6 30
-6 23 0 34 5 34 15 1 9 6 5 15 -10 8 -14 14 -19 15 -12 0 7 4 10 10 7 6 -4 7
1 4 12 -5 16 -4 16 10 -1 10 -12 16 -15 16 -7 0 10 7 9 28 -5 21 -14 24 -14
14 -2 -8 10 -9 19 -3 22 5 3 11 1 13 -6 5 -14 38 -20 38 -6 0 6 -8 7 -17 3
-15 -5 -16 -4 -5 7 11 11 16 10 28 -6 8 -11 14 -14 14 -7 0 7 5 9 13 4 19 -12
47 -14 47 -4 0 6 -10 8 -21 6 -12 -3 -18 -1 -15 3 13 12 51 8 64 -8 7 -8 11
-10 10 -5 -2 6 1 10 7 10 5 0 9 -4 7 -9 -2 -5 4 -4 12 4 9 7 16 9 16 5 0 -5 9
0 20 10 20 18 21 18 15 -1 -6 -17 -4 -16 13 3 18 21 21 21 27 5 5 -11 9 -13
12 -5 2 7 11 9 20 6 12 -5 14 -3 8 8 -6 11 -5 11 5 2 7 -6 19 -9 26 -6 12 4
12 9 2 22 -10 13 -10 14 2 3 8 -6 22 -12 33 -12 12 0 16 -4 11 -12 -6 -10 -5
-10 8 -1 8 7 18 9 22 5 4 -4 7 -2 6 3 -5 21 1 29 10 15 8 -13 11 -13 22 -1 10
10 10 12 1 7 -18 -10 -16 -1 3 14 8 8 14 9 13 4 -4 -24 4 -31 35 -30 21 1 32
5 29 12 -6 16 14 27 23 13 5 -8 3 -9 -6 -4 -9 5 -11 4 -6 -3 11 -18 26 -14 26
6 0 14 2 15 10 2 7 -11 10 -11 10 -2 0 10 5 10 20 2 17 -9 20 -8 20 12 0 21 0
21 16 2 8 -10 13 -14 10 -7 -4 6 -2 14 4 18 5 3 10 1 10 -4 0 -6 5 -11 11 -11
5 0 8 3 6 8 -3 4 2 14 11 22 14 13 15 12 9 -3 -5 -14 -2 -16 16 -13 36 7 57
18 52 26 -3 5 -1 11 5 15 5 3 10 -2 11 -12 0 -16 1 -16 9 2 5 11 9 14 9 8 1
-7 5 -13 10 -13 6 0 8 9 6 20 -2 12 0 18 6 15 5 -4 7 -10 4 -15 -3 -5 -1 -11
5 -15 5 -3 10 0 10 8 0 10 7 13 20 10 11 -3 36 4 55 16 20 12 34 17 31 13 -2
-4 4 -8 14 -9 11 -1 22 3 25 8 4 5 11 6 17 3 7 -5 8 -2 3 6 -6 10 -4 12 9 7 9
-4 15 -3 12 1 -2 4 7 12 20 19 13 6 22 7 18 2 -3 -5 0 -9 5 -9 6 0 11 7 11 15
0 9 6 12 17 8 12 -5 14 -3 8 8 -7 11 -6 12 6 2 9 -7 20 -8 29 -3 8 5 17 7 21
4 4 -2 10 0 14 5 3 6 -4 8 -15 6 -11 -2 -18 0 -15 5 3 4 19 6 37 3 27 -4 30
-3 20 10 -11 13 -8 15 17 13 24 -2 28 1 19 11 -8 11 -7 12 7 6 15 -5 17 -3 12
12 -6 15 -5 16 8 5 11 -9 15 -9 15 -1 0 7 5 9 10 6 6 -3 10 1 10 10 0 9 5 13
10 10 6 -4 7 -11 4 -17 -4 -7 -2 -8 4 -4 6 4 8 14 5 23 -4 11 -3 14 5 9 18
-11 37 4 21 16 -11 8 -10 9 3 5 18 -6 68 13 68 26 0 4 7 7 16 7 8 0 13 4 10 8
-3 4 9 7 25 6 20 -1 29 2 26 10 -3 7 4 13 14 13 12 1 17 -3 13 -9 -4 -7 -2 -8
4 -4 7 4 10 19 7 34 -3 16 -2 21 2 12 16 -30 40 -20 34 13 -1 5 3 6 9 2 6 -3
8 -12 4 -18 -3 -7 1 -4 9 5 8 10 18 14 22 10 5 -4 5 1 2 10 -4 12 -2 15 8 12
21 -8 73 33 90 69 11 24 13 26 9 7 -6 -21 -1 -19 26 15 36 45 47 56 35 36 -6
-10 -4 -12 4 -7 9 6 9 11 -1 24 -10 12 -10 14 -1 8 7 -4 23 0 35 8 16 11 18
16 8 17 -8 0 -3 5 13 11 15 5 25 14 21 19 -3 5 2 9 10 9 17 0 39 34 28 44 -3
4 2 4 13 0 18 -7 18 -6 6 9 -12 15 -12 17 1 12 10 -4 23 4 35 19 11 14 24 22
29 18 5 -4 2 1 -5 11 -8 9 -11 20 -7 24 3 3 6 1 6 -5 0 -6 6 -9 14 -6 8 3 12
12 9 20 -3 8 1 14 10 14 9 0 19 5 23 12 4 6 3 8 -3 5 -11 -7 -11 29 1 40 4 5
6 4 4 -2 -2 -5 0 -11 5 -12 4 -2 7 -1 7 2 1 9 47 55 56 55 5 0 20 10 34 21 14
11 19 17 11 13 -10 -5 -12 -3 -7 5 6 9 11 9 24 -1 14 -11 15 -10 8 6 -7 19 -6
19 13 2 20 -18 20 -18 16 2 -2 15 0 19 11 15 7 -3 11 -10 8 -17 -3 -6 1 -3 9
6 11 14 16 15 26 5 10 -9 12 -9 9 3 -2 9 4 14 15 13 13 -1 17 4 12 14 -4 13
-3 14 10 3 12 -10 15 -10 15 3 0 17 16 25 48 22 12 -1 22 2 22 7 0 5 5 6 11 3
6 -4 17 3 26 15 9 13 21 19 30 15 14 -5 14 -3 2 12 -12 14 -12 16 0 8 11 -6
13 -4 7 10 -5 15 -4 16 9 5 11 -9 15 -9 15 -1 0 7 4 10 9 7 11 -7 35 20 27 32
-3 5 1 9 9 9 8 0 11 -5 8 -10 -4 -6 -1 -7 6 -3 7 5 10 15 6 23 -4 13 -3 14 10
3 13 -11 15 -9 16 11 0 13 3 19 5 12 4 -8 15 -2 34 17 15 16 32 26 36 22 5 -4
2 2 -6 12 -8 11 -10 17 -4 13 7 -4 14 0 17 8 4 8 15 12 27 10 11 -2 18 0 15 6
-4 5 0 9 7 10 7 0 4 5 -7 10 -17 8 -16 9 7 6 29 -4 42 12 31 40 -5 12 -2 15 9
11 8 -4 15 -1 15 8 0 7 -4 11 -9 8 -4 -3 -8 -1 -8 4 0 6 7 12 15 16 8 3 15 9
14 13 -1 4 0 13 1 18 1 6 1 27 0 49 -1 28 2 36 11 31 8 -5 10 -4 5 3 -5 9 -13
9 -26 2 -28 -15 -37 -12 -13 5 21 15 27 64 10 81 -4 4 -7 16 -7 26 0 10 -4 18
-10 18 -6 0 -6 -9 0 -24 6 -18 5 -26 -4 -29 -9 -4 -11 2 -8 20 4 20 2 24 -9
18 -11 -6 -12 -5 -1 6 18 20 15 32 -9 26 -12 -3 -18 -3 -15 0 3 4 1 12 -5 19
-7 8 -6 14 2 20 8 5 9 3 4 -6 -6 -9 -4 -11 4 -6 9 6 9 12 -3 24 -8 10 -13 31
-12 49 1 17 -2 30 -6 27 -10 -6 -11 10 -1 20 12 12 12 36 0 30 -7 -3 -3 2 8
12 18 15 18 16 2 10 -15 -5 -17 -2 -12 15 5 14 3 19 -4 15 -7 -5 -9 -1 -5 8 3
9 11 13 18 9 8 -4 8 -3 0 6 -6 7 -20 13 -32 14 -11 0 -19 4 -16 8 2 4 -3 12
-11 19 -8 7 -15 18 -15 24 0 8 3 7 8 -1 5 -8 13 -9 22 -3 11 7 12 10 2 10 -9
0 -12 11 -10 33 2 25 -2 34 -19 42 -13 5 -23 13 -23 18 0 4 5 5 10 2 14 -9 12
7 -4 27 -7 10 -16 15 -19 11 -4 -3 -7 3 -7 15 0 12 -8 23 -20 27 -12 4 -17 11
-14 18 4 7 4 9 -1 5 -4 -4 -15 -2 -24 4 -11 9 -10 6 2 -9 14 -16 15 -23 6 -29
-7 -4 -10 -3 -6 3 8 13 -27 45 -38 36 -5 -5 -3 1 5 11 10 13 10 17 3 12 -8 -4
-13 -2 -13 4 0 6 -4 9 -9 6 -5 -4 -11 -2 -13 2 -10 26 -265 139 -323 144 -14
1 -25 5 -25 8 0 3 -15 6 -33 6 -17 1 -45 7 -62 14 -16 7 -36 14 -44 14 -17 1
-48 46 -32 46 8 0 9 5 3 16 -5 9 -7 25 -5 34 3 10 0 21 -6 24 -14 9 -2 36 15
36 8 0 14 5 14 11 0 5 -5 7 -11 3 -8 -4 -9 1 -4 16 4 12 3 20 -1 17 -5 -3 -9
5 -9 18 0 14 5 21 13 18 8 -4 10 0 6 11 -3 9 -11 13 -18 9 -6 -4 -4 2 4 12 9
11 10 16 3 11 -7 -4 -13 -3 -13 1 0 5 6 15 13 22 10 10 9 11 -4 6 -9 -3 -23 3
-34 15 -14 16 -21 18 -28 8 -6 -10 -7 -9 -4 2 2 8 10 14 16 12 6 -1 11 10 11
25 0 22 -2 25 -10 13 -15 -23 -12 -7 5 27 19 38 13 103 -20 216 -14 48 -25
101 -25 117 0 22 -5 30 -17 30 -15 0 -16 2 -3 10 8 5 11 12 7 16 -4 4 -2 13 5
21 8 11 7 12 -5 7 -16 -6 -18 19 -2 33 4 4 5 2 0 -6 -6 -10 -4 -12 5 -6 10 6
9 11 -5 22 -11 7 -13 13 -7 13 7 0 12 5 12 11 0 5 -6 7 -12 3 -8 -5 -7 0 2 11
14 17 13 18 -2 12 -10 -3 -20 -1 -24 5 -4 6 -3 8 3 5 18 -11 23 21 7 38 -9 9
-13 22 -10 31 3 8 -1 17 -9 20 -8 4 -15 12 -15 20 0 8 -5 14 -11 14 -5 0 -7 5
-3 12 5 7 2 9 -8 6 -8 -4 -20 3 -28 15 -12 20 -12 21 4 8 14 -12 16 -12 10 3
-3 9 -13 16 -21 16 -8 0 -11 5 -8 10 5 9 -24 15 -48 11 -5 -1 -6 2 -3 7 2 4 0
14 -5 22 -7 13 -10 13 -18 1 -6 -9 -11 -10 -15 -2 -4 6 -2 11 3 11 6 0 11 5
11 10 0 6 -9 10 -20 10 -11 0 -25 9 -32 20 -7 11 -16 20 -21 20 -4 0 -5 -6 -1
-12 5 -9 3 -9 -9 1 -9 7 -14 17 -11 22 3 5 0 9 -6 9 -6 0 -8 6 -5 13 4 6 -1 3
-9 -7 -9 -11 -16 -14 -16 -7 0 7 -5 9 -12 5 -7 -4 -8 -3 -4 5 4 6 12 9 17 6 5
-4 9 -1 9 4 0 6 -7 11 -15 11 -9 0 -12 6 -8 15 3 10 0 15 -8 13 -8 -2 -13 3
-11 10 1 8 -2 11 -8 7 -8 -5 -7 -11 1 -21 8 -10 8 -14 0 -14 -6 0 -11 5 -11
11 0 8 -6 7 -17 -2 -15 -13 -15 -11 1 13 11 17 13 28 7 33 -11 6 -12 5 -15
-17 0 -6 -9 -12 -19 -14 -9 -1 -15 2 -11 7 3 5 -1 9 -9 9 -8 0 -17 7 -21 15
-5 13 -2 13 19 -1 15 -10 25 -12 25 -5 0 6 -7 11 -16 11 -10 0 -14 6 -11 15 4
8 1 17 -5 21 -6 4 -8 3 -5 -3 4 -6 -1 -14 -11 -19 -24 -11 -52 -13 -46 -3 2 4
12 6 22 3 9 -3 4 2 -11 11 -16 9 -39 14 -51 11 -25 -6 -54 8 -37 18 14 9 14
26 0 26 -5 0 -7 -4 -4 -10 3 -5 1 -10 -5 -10 -6 0 -15 11 -20 25 -14 36 -21
31 -8 -6 6 -16 8 -33 4 -36 -3 -4 -6 1 -6 10 0 10 -5 14 -15 11 -8 -4 -15 -1
-15 6 0 6 4 8 10 5 6 -4 7 1 3 11 -4 11 -8 13 -11 6 -2 -7 -9 -9 -15 -5 -6 4
-8 0 -5 -9 4 -9 0 -15 -8 -15 -8 0 -12 2 -9 5 5 5 -20 32 -30 32 -3 0 -3 -4 0
-10 3 -5 1 -10 -4 -10 -6 0 -11 10 -11 23 0 18 -2 19 -10 7 -6 -9 -10 -10 -10
-3 0 6 -26 17 -57 23 -32 7 -65 16 -73 20 -20 11 -99 24 -205 35 -28 2 -64 9
-80 14 -17 5 -84 17 -150 26 -66 8 -136 18 -155 21 -58 10 -881 12 -935 3z
m1883 -233 c-7 -8 -15 -12 -17 -11 -5 6 10 25 20 25 5 0 4 -6 -3 -14z m492
-360 c0 -3 -4 -8 -10 -11 -5 -3 -10 -1 -10 4 0 6 5 11 10 11 6 0 10 -2 10 -4z
m111 -703 c8 -9 9 -14 2 -10 -7 4 -13 0 -16 -10 -3 -10 -4 -6 -4 10 2 32 1 32
18 10z m-31 3 c0 -2 -7 -7 -16 -10 -8 -3 -12 -2 -9 4 6 10 25 14 25 6z m684
-574 c3 -5 -1 -9 -9 -9 -8 0 -12 4 -9 9 3 4 7 8 9 8 2 0 6 -4 9 -8z m36 -46
c0 -3 -4 -8 -10 -11 -5 -3 -10 -1 -10 4 0 6 5 11 10 11 6 0 10 -2 10 -4z m35
-56 c3 -6 -1 -7 -9 -4 -18 7 -21 14 -7 14 6 0 13 -4 16 -10z m52 -226 c-3 -3
-12 -4 -19 -1 -8 3 -5 6 6 6 11 1 17 -2 13 -5z m-2 -74 c-4 -6 -1 -17 5 -25 9
-11 9 -15 1 -15 -6 0 -11 5 -11 11 0 5 -5 7 -11 3 -8 -4 -8 0 0 15 7 11 14 21
17 21 3 0 2 -5 -1 -10z m82 -184 c0 -8 -6 -12 -15 -9 -11 5 -11 7 0 14 7 5 13
9 14 9 0 0 1 -6 1 -14z m7 -127 c-3 -5 -13 -8 -22 -8 -15 1 -15 2 1 6 15 4 16
7 5 21 -12 15 -11 16 4 3 10 -7 15 -17 12 -22z m-5438 -21 c4 -6 3 -8 -3 -5
-6 4 -16 0 -23 -8 -7 -8 -17 -15 -22 -15 -6 0 0 9 13 20 29 23 26 23 35 8z
m-56 -64 c0 -8 -19 -13 -24 -6 -3 5 1 9 9 9 8 0 15 -2 15 -3z m5460 -14 c0 -5
-5 -10 -11 -10 -5 0 -7 5 -4 10 3 6 8 10 11 10 2 0 4 -4 4 -10z m-220 -194 c0
-3 -4 -8 -10 -11 -5 -3 -10 -1 -10 4 0 6 5 11 10 11 6 0 10 -2 10 -4z m-5165
-66 c3 -5 2 -10 -4 -10 -5 0 -13 5 -16 10 -3 6 -2 10 4 10 5 0 13 -4 16 -10z
m5060 0 c-3 -5 -12 -10 -18 -10 -7 0 -6 4 3 10 19 12 23 12 15 0z m-290 -130
c-3 -5 -11 -10 -16 -10 -6 0 -7 5 -4 10 3 6 11 10 16 10 6 0 7 -4 4 -10z m-54
-23 c-10 -9 -11 -8 -5 6 3 10 9 15 12 12 3 -3 0 -11 -7 -18z m-4480 -135 c-7
-2 -18 1 -23 6 -8 8 -4 9 13 5 13 -4 18 -8 10 -11z m89 -88 c0 -8 -19 -13 -24
-6 -3 5 1 9 9 9 8 0 15 -2 15 -3z m40 -24 c0 -5 -5 -10 -11 -10 -5 0 -7 5 -4
10 3 6 8 10 11 10 2 0 4 -4 4 -10z m15 -30 c-3 -6 4 -14 17 -19 15 -7 17 -10
7 -10 -19 -1 -42 23 -32 32 10 10 15 8 8 -3z m4016 -87 c-12 -20 -14 -14 -5
12 4 9 9 14 11 11 3 -2 0 -13 -6 -23z m-3831 -39 c0 -8 -19 -13 -24 -6 -3 5 1
9 9 9 8 0 15 -2 15 -3z m3765 -23 c3 -6 -5 -15 -17 -21 -21 -10 -21 -10 -6 3
10 8 15 17 11 20 -3 4 -4 7 0 7 3 0 8 -4 12 -9z m-3514 -158 c13 -16 12 -17
-3 -4 -10 7 -18 15 -18 17 0 8 8 3 21 -13z m154 -71 c-3 -3 -11 0 -18 7 -9 10
-8 11 6 5 10 -3 15 -9 12 -12z m95 -32 c0 -5 -2 -10 -4 -10 -3 0 -8 5 -11 10
-3 6 -1 10 4 10 6 0 11 -4 11 -10z m135 -49 c3 -5 2 -12 -3 -15 -5 -3 -9 1 -9
9 0 17 3 19 12 6z m136 -64 c-10 -9 -11 -8 -5 6 3 10 9 15 12 12 3 -3 0 -11
-7 -18z m2289 3 c0 -5 -5 -10 -11 -10 -5 0 -7 5 -4 10 3 6 8 10 11 10 2 0 4
-4 4 -10z m-2156 -36 c3 -8 2 -12 -4 -9 -6 3 -10 10 -10 16 0 14 7 11 14 -7z
m1909 -35 c-8 -8 -13 -7 -18 2 -5 8 -4 10 3 5 7 -4 12 -2 12 5 0 7 3 9 7 6 4
-4 2 -12 -4 -18z m-533 -74 c0 -2 -10 -9 -22 -15 -22 -11 -22 -10 -4 4 21 17
26 19 26 11z m-670 -11 c0 -8 -19 -13 -24 -6 -3 5 1 9 9 9 8 0 15 -2 15 -3z"/>
<path d="M4080 4630 c-9 -6 -10 -10 -3 -10 6 0 15 5 18 10 8 12 4 12 -15 0z"/>
<path d="M4487 4379 c7 -7 15 -10 18 -7 3 3 -2 9 -12 12 -14 6 -15 5 -6 -5z"/>
<path d="M4745 3361 c-3 -5 -1 -12 4 -15 5 -3 11 1 15 9 6 16 -9 21 -19 6z"/>
<path d="M5450 2776 c0 -2 6 -9 14 -15 11 -9 16 -9 22 0 4 8 3 9 -4 5 -7 -4
-12 -2 -12 3 0 6 -4 11 -10 11 -5 0 -10 -2 -10 -4z"/>
<path d="M5528 2493 c7 -3 16 -2 19 1 4 3 -2 6 -13 5 -11 0 -14 -3 -6 -6z"/>
<path d="M55 2381 c5 -16 4 -21 -4 -17 -8 5 -8 -1 1 -19 10 -23 13 -24 26 -11
13 13 12 18 -8 43 -21 26 -22 26 -15 4z"/>
<path d="M106 2365 c-9 -26 -7 -32 5 -12 6 10 9 21 6 23 -2 3 -7 -2 -11 -11z"/>
<path d="M5145 1840 c-3 -5 -1 -10 4 -10 6 0 11 5 11 10 0 6 -2 10 -4 10 -3 0
-8 -4 -11 -10z"/>
</g>
</svg>
